<?xml version="1.0" standalone="no"?>
<!DOCTYPE svg PUBLIC "-//W3C//DTD SVG 20010904//EN"
 "http://www.w3.org/TR/2001/REC-SVG-20010904/DTD/svg10.dtd">
<svg version="1.0" xmlns="http://www.w3.org/2000/svg"
 width="272.000000pt" height="185.000000pt" viewBox="0 0 272.000000 185.000000"
 preserveAspectRatio="xMidYMid meet">

<g transform="translate(0.000000,185.000000) scale(0.100000,-0.100000)"
fill="#000000" stroke="none">
<path d="M22 1838 c-9 -9 -12 -226 -12 -915 0 -897 0 -902 20 -913 31 -17 445
-9 462 8 10 10 14 94 16 370 2 320 4 358 19 370 12 9 84 12 274 12 221 0 260
-2 273 -16 14 -13 16 -61 16 -369 l0 -354 22 -15 c19 -13 58 -16 230 -16 195
0 209 1 228 20 20 20 20 30 18 916 -3 782 -5 896 -18 904 -23 15 -453 13 -468
-2 -9 -9 -12 -98 -12 -339 0 -327 0 -328 -22 -343 -19 -14 -62 -16 -273 -16
-185 0 -256 3 -268 13 -15 11 -17 48 -19 345 -3 283 -5 334 -18 342 -23 15
-453 13 -468 -2z"/>
<path d="M1730 1707 l0 -145 178 -4 c175 -3 178 -3 232 -33 81 -45 114 -97
118 -190 5 -87 -8 -133 -52 -183 -57 -65 -98 -76 -298 -80 l-178 -4 0 -144 0
-144 105 0 c97 0 106 -2 119 -22 8 -13 76 -183 151 -378 75 -195 144 -361 153
-367 11 -10 70 -13 212 -13 204 0 220 3 220 43 0 10 -74 187 -165 393 -91 205
-165 382 -165 392 0 13 19 27 62 48 81 38 186 136 226 212 38 72 62 166 62
249 0 194 -88 336 -262 423 -127 62 -229 80 -495 87 l-223 6 0 -146z"/>
</g>
</svg>
